<svg width="3993" height="2621" viewBox="0 0 3993 2621" fill="none" xmlns="http://www.w3.org/2000/svg">
<path fill-rule="evenodd" clip-rule="evenodd" d="M3173.3 0.261904C3167.45 1.4399 3161.27 7.6789 3158.15 15.5619C3155.37 22.5719 3155.1 39.8139 3157.63 48.9809C3161.53 63.1159 3171.69 77.2019 3181.62 82.2319C3188 85.4659 3195.2 85.6699 3200.87 82.7759C3219.83 73.0979 3218.43 31.4639 3198.44 10.7199C3195.33 7.4949 3190.97 3.9329 3188.76 2.8039C3184.46 0.610903 3177.36 -0.556096 3173.3 0.261904ZM154.785 26.5839C147.054 30.3389 138.986 41.2919 134.915 53.5619C126.578 78.6909 133.87 108.782 158.355 150.288C167.258 165.379 175.407 176.548 183.402 184.619C187.643 188.9 192.243 193.143 193.623 194.048C195.955 195.576 196.369 195.573 199.459 194.016C204.674 191.387 225.036 170.145 233.442 158.562C253.911 130.359 263.678 105.091 264.944 77.0619C266.05 52.5839 258.71 35.8749 244.503 30.5309C226.968 23.9339 208.846 39.5189 202.14 66.9619C200.967 71.7599 199.689 75.3199 199.298 74.8739C198.907 74.4269 196.967 68.9979 194.986 62.8079C188.585 42.8099 182.848 33.4119 173.378 27.4059C167.908 23.9369 160.876 23.6259 154.785 26.5839ZM3247.77 34.6619C3242 37.7039 3237.59 42.2329 3233.77 49.0619C3223.28 67.8089 3223.07 91.6909 3233.29 105.367C3246.35 122.844 3267.71 113.574 3276.89 86.4489C3278.87 80.6089 3279.28 77.3629 3279.28 67.9039C3279.28 54.9639 3277.86 49.1279 3272.88 41.7179C3267.02 32.9839 3256.54 30.0409 3247.77 34.6619ZM3827.55 35.1189C3815.4 41.1709 3808.05 55.2769 3806.65 75.2109C3806.29 80.3539 3805.7 84.5619 3805.35 84.5619C3805 84.5619 3803.22 81.5249 3801.39 77.8119C3787.75 50.1069 3774.89 38.5939 3760.34 41.0529C3753.43 42.2199 3744.1 52.3419 3741.1 61.9039C3739.18 68.0399 3737.29 79.1259 3737.29 84.2239C3737.28 95.6559 3742.03 112.305 3748.99 125.294C3758.6 143.218 3779.06 169.133 3797.23 186.389C3802.49 191.391 3820.4 203.577 3822.42 203.53C3824.32 203.486 3826.09 201.916 3831.43 195.562C3844.33 180.204 3859.39 151.417 3865.44 130.562C3869.95 115.037 3870.68 109.466 3870.74 90.5619C3870.79 71.4839 3870.28 67.8169 3866 56.5619C3858.54 36.9069 3842.22 27.8069 3827.55 35.1189ZM3101.94 35.9569C3093.6 39.0679 3089.28 46.4669 3089.28 57.6469C3089.28 65.9619 3091.05 72.6019 3095.62 81.4399C3105.84 101.219 3127.51 115.256 3142.14 111.579C3158.69 107.419 3162.69 87.9419 3151.55 65.6899C3146.4 55.3849 3134.44 43.2359 3125.02 38.7239C3116.9 34.8399 3107.84 33.7539 3101.94 35.9569ZM2513.56 69.5019C2506.62 71.2169 2501.72 75.9149 2497.33 85.0619C2489.93 100.458 2491.39 122.982 2500.89 139.97C2503.85 145.265 2511.14 152.185 2515.81 154.138C2523.72 157.441 2533.03 155.029 2539.11 148.107C2546.28 139.938 2548.68 131.817 2548.59 116.062C2548.51 102.978 2546.4 94.5489 2540.82 85.0399C2533.74 72.9529 2523.41 67.0679 2513.56 69.5019ZM2586.28 75.8239C2572.14 82.6189 2560.28 105.218 2560.28 125.377C2560.28 133.266 2563.23 144.37 2566.72 149.647C2576.32 164.154 2593.89 162.35 2606.5 145.562C2615.6 133.441 2620.59 114.22 2618.24 100.298C2616.69 91.1379 2614.36 85.7599 2609.69 80.5859C2603.17 73.3709 2594.89 71.6869 2586.28 75.8239ZM819.891 78.0939C807.568 83.2099 796.672 94.2289 790.255 108.062C784.128 121.268 782.758 130.983 785.805 139.618C789.331 149.611 795.056 153.562 806.014 153.562C815.508 153.562 823.584 149.457 833.37 139.657C846.158 126.851 851.675 114.597 851.703 98.9309C851.718 90.5349 851.48 89.4129 848.752 85.0079C842.962 75.6589 832.051 73.0449 819.891 78.0939ZM743.643 82.5309C733.792 84.8319 725.017 95.1189 720.159 110.062C716.823 120.324 716.894 136.332 720.317 146.062C723.278 154.476 729.491 161.356 736.07 163.505C739.885 164.752 740.982 164.71 746.07 163.129C755.64 160.153 763.413 150.576 768.949 134.938C771.347 128.164 771.324 106.992 768.912 100.562C766.586 94.3639 761.684 87.3919 757.925 84.9369C754.244 82.5339 748.08 81.4949 743.643 82.5309ZM1319.28 82.1609C1306.17 84.5129 1294.55 90.1989 1282.91 99.9479C1262.23 117.276 1232.13 167.427 1226.42 194.062C1225.83 196.812 1224.93 200.988 1224.41 203.342C1223.49 207.593 1223.51 207.635 1227.13 209.479C1243.88 218 1283.48 223.941 1308.08 221.625C1330.34 219.53 1342.57 216.362 1358.78 208.488C1370.82 202.643 1379.91 195.496 1385.11 187.778C1389.96 180.585 1391.28 176.701 1391.28 169.729C1391.28 159.326 1384.65 150.725 1373.36 146.481C1365.64 143.579 1348.04 144.105 1338.01 147.538C1334.29 148.813 1330.97 149.582 1330.64 149.248C1330.3 148.913 1333.72 144.524 1338.24 139.495C1352.07 124.087 1357.46 113.929 1357.57 103.062C1357.66 93.9559 1353.46 87.8389 1344.41 83.9119C1340.83 82.3569 1324.53 81.2199 1319.28 82.1609ZM1884.58 91.1529C1870.8 97.8219 1867.36 114.81 1876.1 133.024C1878.27 137.548 1882.61 144.279 1885.75 147.982C1888.9 151.685 1891.25 154.926 1891 155.183C1890.74 155.441 1884.96 153.803 1878.16 151.544C1849.65 142.082 1831.62 145.192 1826.44 160.461C1821.43 175.226 1834.4 199.29 1854.28 212.108C1863.02 217.743 1867.4 219.883 1876.28 222.86C1897.65 230.023 1923.78 233.822 1951.27 233.764C1968.07 233.729 1969.81 233.529 1985.03 229.87C1987.15 229.36 1987.28 228.825 1987.28 220.695C1987.26 202.394 1978.71 171.385 1967.52 149.062C1955.25 124.549 1935.97 103.353 1917.53 94.0909C1905.12 87.8579 1893.53 86.8239 1884.58 91.1529ZM3188.67 109.989C3177.74 112.609 3170.45 119.156 3166.39 130.01C3164.57 134.877 3162.16 144.862 3160.22 155.562C3159.34 160.426 3156.93 169.134 3152.74 182.562C3149.13 194.146 3148.37 207.286 3150.8 216.264C3152.23 221.528 3153.54 223.866 3157.19 227.627C3163.84 234.483 3170.51 236.029 3180.09 232.936C3186.32 230.925 3191.53 226.082 3200.96 213.562C3217.51 191.575 3223.35 188.595 3249.93 188.574C3269.01 188.559 3276.18 186.718 3282.75 180.147C3287.98 174.921 3289.72 170.083 3288.98 162.871C3287.52 148.744 3273.73 137.14 3248.28 128.632C3237.69 125.088 3238.08 125.244 3226.28 119.778C3212.78 113.519 3211.05 112.781 3206.28 111.263C3199.25 109.023 3194.22 108.659 3188.67 109.989ZM3087.75 116.563C3064.31 119.954 3062.57 144.915 3084.55 162.617C3096.07 171.896 3107.04 175.931 3120.78 175.935C3133.82 175.938 3138.32 174.012 3143.66 166.156C3153.6 151.506 3135.42 126.554 3108.78 118.29C3102.4 116.31 3094.17 115.634 3087.75 116.563ZM869.75 131.035C854.6 135.824 837.931 149.274 832.299 161.255C831.167 163.663 829.574 168.196 828.758 171.326C827.448 176.356 827.448 177.611 828.759 182.119C830.471 188.011 834.657 192.843 840.028 195.128C844.921 197.21 858.184 197.3 864.858 195.297C880.565 190.584 895.692 178.236 902.51 164.562C905.362 158.844 905.754 157.081 905.768 149.905C905.784 142.274 905.586 141.502 902.707 137.945C897.728 131.793 892.318 129.606 882.285 129.689C877.61 129.728 871.969 130.334 869.75 131.035ZM2450.69 131.082C2446.34 132.991 2441.58 138.775 2440.21 143.799C2438.57 149.83 2439.61 162.816 2442.31 170.062C2448.61 186.962 2463.56 201.455 2478.03 204.702C2487.27 206.774 2494.8 203.057 2499.6 194.062C2502.91 187.856 2502.53 174.42 2498.79 165.062C2495.55 156.973 2490.93 149.386 2485.75 143.657C2481.78 139.261 2471.85 132.72 2466.21 130.787C2461.63 129.216 2454.64 129.349 2450.69 131.082ZM2640.78 142.041C2632.36 143.593 2624.93 147.926 2616.75 156.062C2592.42 180.254 2594.01 213.562 2619.5 213.562C2623.95 213.562 2632.72 210.669 2638.45 207.308C2649.26 200.979 2660.83 185.795 2664.24 173.473C2666.82 164.177 2666.81 160.046 2664.21 153.094C2660.66 143.61 2652.69 139.848 2640.78 142.041ZM757.285 175.093C752.06 175.883 740.36 176.795 731.285 177.12C704.811 178.068 692.101 182.41 684.285 193.176C681.064 197.613 680.785 198.564 680.785 205.122C680.785 219.138 686.907 225.053 709.013 232.391C725.378 237.824 729.21 239.727 735.673 245.634C742.087 251.496 745.313 257.551 750.69 273.824C752.646 279.743 754.938 285.925 755.784 287.561C760.074 295.856 769.774 302.532 777.567 302.552C784.951 302.571 792.577 297.625 797.854 289.396C803.338 280.842 806.109 265.494 806.213 243.101C806.246 235.972 806.77 227.422 807.376 224.101C807.982 220.78 808.526 213.337 808.584 207.562C808.679 198.241 808.399 196.429 806.093 191.421C803.208 185.156 798.997 180.657 792.388 176.779C788.525 174.513 786.701 174.166 777.388 173.927C771.556 173.778 762.51 174.302 757.285 175.093ZM2541.84 176.171C2535.16 178.284 2529.32 182.472 2521.95 190.422C2518.56 194.074 2508.32 204.487 2499.19 213.562C2476.29 236.324 2472.04 243.013 2471.89 256.562C2471.81 264.218 2472.88 267.528 2476.96 272.2C2484.86 281.254 2500.04 281.191 2518.31 272.028C2527.14 267.598 2535.2 265.562 2543.9 265.562C2554.19 265.562 2556.27 266.307 2573.94 276.304C2588.35 284.462 2592.78 285.956 2600.7 285.321C2612.93 284.339 2621.28 275.471 2621.28 263.462C2621.28 251.541 2614.24 237.818 2599.77 221.562C2596.1 217.437 2589.25 208.486 2584.54 201.671C2579.84 194.856 2574.04 187.294 2571.65 184.868C2563.55 176.657 2551.45 173.126 2541.84 176.171ZM855.285 211.153C830.661 215.644 814.609 231.833 819.803 246.937C822.116 253.665 827.939 258.372 839.285 262.687C844.13 264.53 863.198 264.291 870.397 262.297C881.101 259.334 892.272 252.202 896.706 245.502C903.066 235.891 902.323 227.713 894.421 220.368C889.977 216.237 888.444 215.294 881.809 212.605C878.764 211.371 859.786 210.332 855.285 211.153ZM3259.8 468.79C3254.83 470.139 3245.56 479.192 3242.62 485.562C3233.22 505.946 3236.19 535.402 3248.93 548.144C3263.58 562.787 3282.15 554.461 3290.2 529.647C3293.17 520.513 3293.17 501.579 3290.2 492.552C3284.35 474.714 3272.39 465.37 3259.8 468.79ZM58.7848 479.784C55.8608 480.82 50.9318 483.889 48.6508 486.092C45.3628 489.268 42.9808 496.279 42.8848 503.062C42.7028 515.856 48.3758 527.561 61.0108 540.461C63.3808 542.881 65.1468 545.034 64.9348 545.246C64.5548 545.626 60.6348 544.757 52.7848 542.552C42.7718 539.74 40.1328 539.312 30.0578 538.864C14.1828 538.157 6.57977 541.144 2.14977 549.826C-3.95023 561.784 3.31377 581.356 19.0958 595.484C38.6058 612.949 67.9768 620.567 115.785 620.562C140.266 620.559 146.217 619.847 161.943 615.037C165.013 614.098 165.309 611.734 163.735 600.758C161.173 582.893 155.528 565.168 146.318 546.062C137.967 528.739 129.631 516.79 117.343 504.523C103.538 490.743 92.0918 483.249 79.7848 479.933C73.9078 478.349 63.0478 478.272 58.7848 479.784ZM3825.43 480.58C3819.69 483.186 3810.57 492.641 3806.61 500.096C3794.95 522.019 3797.79 549.552 3812.48 557.164C3816.65 559.319 3824.08 558.882 3829.78 556.146C3835.5 553.406 3838.4 550.927 3843.35 544.562C3852.03 533.388 3855.6 521.901 3855.12 506.67C3854.83 497.404 3854.42 495.322 3851.91 490.212C3846.68 479.547 3836.15 475.718 3825.43 480.58ZM3180.78 481.729C3170.88 487.209 3166.8 497.198 3167.51 514.25C3168.17 530.166 3173.41 543.133 3183.4 553.6C3195.74 566.533 3210.16 568.299 3219.22 557.986C3223.13 553.524 3224.73 549.652 3226.32 540.728C3230.19 519.108 3215.7 489.663 3197.41 481.979C3193.43 480.304 3183.63 480.157 3180.78 481.729ZM3910.78 486.02C3910.23 486.184 3907.76 486.921 3905.28 487.655C3899.73 489.306 3895.4 491.723 3888.28 497.145C3875.37 506.993 3866.6 522.396 3865.75 536.731C3865.4 542.585 3865.71 544.146 3868.12 548.76C3872.07 556.341 3877.22 559.089 3887.28 558.984C3915.14 558.693 3944.07 523.952 3937.17 499.085C3935.75 493.987 3929.86 488.093 3924.76 486.677C3921.12 485.667 3913.21 485.294 3910.78 486.02ZM3320.23 525.421C3315.42 527.827 3308.15 532.95 3306.18 535.318C3294.01 549.96 3287.68 568.59 3290.34 581.97C3292.76 594.149 3300.17 600.928 3310.37 600.301C3323.27 599.509 3336.16 589.023 3343.72 573.184C3348.86 562.402 3350.28 556.975 3350.28 548.157C3350.28 537.319 3345.85 528.408 3338.6 524.684C3335.2 522.936 3324.32 523.372 3320.23 525.421ZM1451.23 534.272C1440.82 539.449 1431.99 550.98 1427.27 565.562C1425.22 571.873 1424.84 574.964 1424.9 585.062C1424.97 598.586 1426.67 604.199 1432.6 610.397C1437.17 615.179 1440.4 616.563 1446.98 616.553C1466.51 616.521 1484.58 588.773 1483.03 561.187C1482.23 546.84 1477.65 537.855 1469.02 533.674C1463.11 530.813 1457.83 530.991 1451.23 534.272ZM568.65 534.484C558.822 536.924 552.277 548.187 552.331 562.562C552.366 571.537 554.474 579.568 559.421 589.562C569.816 610.566 589.035 619.745 600.865 609.357C611.853 599.71 612.885 578.712 603.348 558.837C595.377 542.226 580.245 531.606 568.65 534.484ZM481.305 546.812C478.883 548.049 475.525 550.791 473.843 552.904C471.091 556.361 470.751 557.567 470.441 564.943C470.151 571.863 470.483 574.088 472.572 579.23C478.952 594.93 491.351 607.258 507.615 614.07C513.137 616.382 515.916 616.928 522.115 616.918C530.615 616.903 533.986 615.633 538.709 610.665C544.657 604.409 545.709 595.962 541.932 584.799C532.877 558.034 499.847 537.339 481.305 546.812ZM2155.75 548.368C2143.01 553.711 2132.26 565.611 2126.23 581.062C2116.38 606.31 2125.32 629.74 2144.29 628.368C2160.65 627.184 2178.12 608.916 2183.75 587.102C2186.88 574.937 2185.18 561.18 2179.62 553.803C2174.5 547.002 2164.45 544.715 2155.75 548.368ZM3940.78 548.965C3928 553.191 3921.38 557.029 3913.47 564.814C3902.3 575.8 3898.55 588.064 3903.46 597.555C3907.51 605.387 3916.44 609.591 3928.9 609.526C3955.81 609.387 3983.37 587.965 3983.26 567.277C3983.24 562.008 3980.38 555.566 3976.83 552.774C3968.63 546.33 3953.57 544.738 3940.78 548.965ZM3137.47 553.213C3136.2 553.491 3133.21 555.595 3130.84 557.89C3127.45 561.162 3126.28 563.193 3125.42 567.301C3124.03 573.86 3125.68 582.639 3129.88 591.103C3135.2 601.829 3149.45 614.763 3161.28 619.625C3163.44 620.512 3168.26 621.062 3173.86 621.062C3182.27 621.062 3183.21 620.854 3186.61 618.26C3192.41 613.84 3193.8 610.379 3193.71 600.562C3193.64 593.142 3193.23 591.236 3190.47 585.562C3184.1 572.49 3172.95 561.498 3160.28 555.818C3154.82 553.369 3142.96 552.015 3137.47 553.213ZM1378.78 564.213C1368.24 566.645 1361.33 576.697 1359.37 592.479C1357.46 607.734 1363.04 626.912 1372.28 636.943C1376.74 641.776 1385.42 646.562 1389.73 646.562C1393.41 646.562 1400.62 642.939 1403.6 639.596C1411.65 630.556 1415.05 613.771 1411.83 598.963C1408.69 584.488 1399.89 570.504 1391.2 566.171C1387.9 564.526 1381.68 563.545 1378.78 564.213ZM2077.07 565.746C2075.03 566.294 2071.4 568.47 2069 570.581C2051.01 586.419 2050.65 626.019 2068.36 641.94C2077.29 649.966 2085.93 650.148 2094.63 642.491C2103.76 634.454 2107.74 623.156 2107.65 605.562C2107.58 592.289 2105.99 585.838 2100.76 577.562C2094.69 567.955 2085.65 563.443 2077.07 565.746ZM1518.28 568.746C1511.87 571.173 1502.18 577.795 1497.52 582.931C1492.08 588.94 1485.6 599.742 1483.38 606.5C1480.49 615.314 1480.51 626.926 1483.42 633.125C1487.43 641.658 1496.68 645.968 1506.25 643.76C1522.04 640.115 1536.1 628.016 1544.25 611.062C1550.61 597.828 1551.47 585.865 1546.75 576.562C1542.15 567.512 1530.21 564.235 1518.28 568.746ZM3770.42 570.095C3763.6 572.293 3756.48 577.376 3753.83 581.936C3745.46 596.352 3752.52 609.645 3774.36 620.593C3799.93 633.416 3804.38 639.391 3809.28 667.547C3811.83 682.2 3813.11 686.26 3816.87 691.68C3823.11 700.687 3834.72 703.552 3844.66 698.539C3855.79 692.93 3864.22 677.083 3867.26 656.062C3868.65 646.433 3869.6 642.272 3873.55 628.562C3880.85 603.239 3880.25 594.17 3870.54 583.425C3863.64 575.79 3853.95 572.592 3837.49 572.518C3832.15 572.494 3822.38 571.766 3815.78 570.899C3799.02 568.698 3776.02 568.29 3770.42 570.095ZM3239.28 577.511C3227.66 580.087 3220.57 586.835 3211.12 604.285C3204.75 616.041 3200.24 623.258 3194.53 630.81C3175.39 656.12 3174.08 680.784 3191.4 689.621C3196.39 692.166 3205.62 692.204 3211.45 689.703C3213.83 688.68 3222.14 683.543 3229.91 678.285C3237.67 673.028 3245.77 668.215 3247.91 667.589C3258.73 664.415 3267.44 665.324 3285.76 671.543C3303.36 677.513 3313.23 676.708 3321.3 668.645C3327.56 662.386 3329.26 656.008 3326.98 647.312C3323.91 635.571 3315.96 625.9 3298.82 613.032C3292.75 608.474 3282.61 599.953 3276.28 594.098C3260.6 579.579 3250.46 575.033 3239.28 577.511ZM2209.73 595.417C2205.84 596.949 2200.63 599.601 2198.15 601.309C2190.5 606.571 2180.58 618.105 2176.53 626.448C2173.09 633.514 2172.83 634.72 2172.81 643.217C2172.79 651.983 2172.92 652.537 2175.89 656.217C2181.02 662.572 2184.52 664.062 2194.28 664.062C2204.97 664.062 2210.42 662.183 2220.93 654.883C2229.46 648.955 2237.44 639.782 2241.94 630.727C2245.51 623.566 2245.76 622.47 2245.77 614.062C2245.78 605.659 2245.59 604.781 2242.78 600.831C2236.57 592.066 2223.6 589.941 2209.73 595.417ZM442.462 609.515C433.43 612.591 427.284 620.39 427.286 628.772C427.287 634.182 431.778 643.888 436.907 649.565C444.731 658.225 457.123 664.909 471.357 668.147C487.519 671.823 503.381 666.839 508.87 656.362C509.648 654.876 510.285 651.136 510.285 648.05C510.285 623.401 469.586 600.278 442.462 609.515ZM615.785 622.192C614.135 622.446 608.51 623.499 603.285 624.532C598.06 625.566 587.71 626.911 580.285 627.521C556.347 629.49 548.915 631.802 542.028 639.425C537.424 644.52 535.812 647.694 534.338 654.562C532.853 661.481 534.127 668.279 540.694 688.485C543.273 696.417 546.237 707.246 547.282 712.548C551.438 733.632 559.736 748.607 570.287 754.063C577.574 757.831 588.422 756.842 594.332 751.869C600.707 746.504 603.509 739.876 605.241 726.062C607.446 708.472 608.466 703.687 611.274 697.749C615.605 688.591 622.445 682.259 635.785 675.059C653.729 665.375 659.439 659.42 660.829 648.943C662.284 637.976 656.305 628.98 644.629 624.568C638.81 622.369 623.067 621.072 615.785 622.192ZM3911.78 624.494C3905 625.603 3895.04 629.794 3890.33 633.528C3885.89 637.039 3881.28 645.468 3881.28 650.062C3881.28 657.993 3889.57 667.831 3899.93 672.202C3918.74 680.142 3944.2 676.912 3956.99 664.962C3971.3 651.583 3963.4 632.989 3940.43 625.988C3934.69 624.239 3918.51 623.395 3911.78 624.494ZM1430.83 643.218C1428.66 644.001 1423.49 646.253 1419.33 648.223C1405.73 654.676 1401.92 656.254 1390.78 660.054C1370.02 667.139 1357.57 675.395 1352.16 685.663C1348.77 692.096 1348.82 702.69 1352.25 707.562C1355.39 712.019 1356.14 712.774 1359.74 715.128C1365.32 718.78 1369.44 719.532 1383.97 719.547C1413.66 719.578 1421.84 723.832 1440.06 748.711C1447.19 758.444 1452.47 762.993 1459.36 765.343C1469.65 768.856 1480.41 763.968 1486.06 753.211C1488.62 748.341 1488.76 747.356 1488.66 735.062C1488.57 722.505 1488.41 721.585 1484.04 708.062C1479.65 694.494 1478.98 691.828 1475.78 675.336C1472.15 656.649 1466.46 648.15 1453.99 642.769C1450.25 641.158 1435.77 641.439 1430.83 643.218ZM1537.05 648.636C1519.69 651.211 1500.8 664.368 1494.72 678.121C1487.23 695.052 1497.47 708.496 1517.89 708.547C1521.24 708.555 1525.29 708.164 1526.89 707.679C1528.48 707.193 1531.81 706.201 1534.28 705.474C1552.82 700.032 1569.25 682.585 1569.42 668.161C1569.59 654.012 1556.01 645.822 1537.05 648.636ZM2782.49 651.146C2770.7 657.02 2762.49 671.814 2759.48 692.562L2758.69 698.062L2756.88 694.649C2755.88 692.772 2754.28 688.947 2753.31 686.149C2748.4 671.907 2739.96 659.188 2731.61 653.442C2725.65 649.344 2717.6 648.37 2711.93 651.062C2703.83 654.902 2696.5 665.395 2692.7 678.562C2691.31 683.368 2690.83 688.189 2690.87 697.062C2690.92 709.207 2692.27 716.399 2696.89 729.062C2703.23 746.415 2723.88 779.067 2740.09 797.365C2746.5 804.605 2762 817.562 2764.24 817.562C2767.78 817.562 2785.51 797.448 2795.53 782.062C2810.14 759.628 2817.78 741.414 2822.41 718.062C2824.02 709.891 2823.99 685.432 2822.36 678.562C2820.61 671.208 2815.86 661.286 2811.97 656.852C2804.78 648.67 2792.31 646.255 2782.49 651.146ZM2117.78 652.224C2116.13 652.484 2110.28 653.962 2104.78 655.508C2091.13 659.344 2087.37 660.198 2075.78 662.076C2056.52 665.201 2044.25 670.469 2036.72 678.849C2028.59 687.885 2027.64 697.972 2034.1 706.562C2040.35 714.87 2045.17 716.968 2066.28 720.583C2090.06 724.652 2097.24 730.056 2108.78 752.562C2114.02 762.787 2117.05 767.406 2121.24 771.601C2131.41 781.766 2142.45 782.33 2152.16 773.181C2157.35 768.288 2160.12 762.58 2161.94 753.062C2163.73 743.743 2163.64 740.172 2161.28 724.562C2160.11 716.794 2159.28 706.244 2159.28 699.031C2159.28 673.848 2154.11 661.053 2141.28 654.512C2136.75 652.2 2125.11 651.066 2117.78 652.224ZM2213.78 675.195C2208.8 675.967 2201.12 678.626 2194.87 681.748C2178.55 689.894 2169.41 704.318 2173.23 715.901C2174.79 720.617 2181.65 726.578 2188.25 728.951C2196.14 731.789 2210.47 731.448 2220.37 728.185C2238.11 722.347 2250.42 711.01 2252.8 698.331C2254.28 690.459 2248.39 681.576 2239.04 677.552C2234.07 675.413 2220.53 674.149 2213.78 675.195ZM480.366 684.167C447.454 691.364 439.591 718.148 466.625 730.969C485.781 740.053 512.535 736.407 526.077 722.865C535.488 713.455 535.379 703.41 525.766 694.062C515.781 684.352 497.619 680.394 480.366 684.167ZM928.733 766.585C923.378 767.324 918.913 770.638 915.539 776.377C913.014 780.673 912.79 781.893 912.845 791.062C912.897 799.591 913.311 802.054 915.66 807.801C920.175 818.852 923.29 823.684 930.725 831.173C948.944 849.523 969.535 850.259 976.822 832.819C979.057 827.469 978.741 813.303 976.211 805.477C971.498 790.897 959.332 775.754 947.785 770.094C941.208 766.871 934.979 765.723 928.733 766.585ZM1008.43 777.718C1003.08 780.366 998.298 786.739 995.314 795.193C992.435 803.347 992.19 819.958 994.813 829.064C998.343 841.318 1005.57 851.627 1013.45 855.646C1017.86 857.896 1025.02 858.134 1029.57 856.181C1046.99 848.707 1051.65 811.654 1037.87 790.137C1029.6 777.218 1018.72 772.627 1008.43 777.718ZM867.482 820.2C859.532 824.046 856.785 828.756 856.785 838.541C856.785 845.363 857.188 846.981 860.609 853.904C873.936 880.868 912.118 895.93 928.145 880.544C931.622 877.207 933.285 872.384 933.285 865.641C933.285 858.406 931.32 852.779 926.008 844.798C912.362 824.297 883.815 812.3 867.482 820.2ZM974.096 867.032C959.917 870.937 952.277 881.51 952.069 897.517C951.813 917.171 953.182 961.462 954.201 966.489C958.738 988.883 974.263 999.859 990.18 991.927C997.442 988.308 1003.08 980.104 1007.28 967.062C1009.59 959.879 1015.89 947.138 1018.85 943.638C1020.45 941.755 1024.28 938.58 1027.37 936.582C1032.57 933.223 1037.23 931.48 1057.22 925.422C1071.08 921.219 1078.91 913.573 1079.98 903.195C1080.72 896.076 1078.97 891.214 1073.65 885.517C1065.97 877.313 1049.66 871.572 1033.97 871.554C1026.76 871.546 1012.57 869.889 995.785 867.095C985.08 865.313 980.387 865.3 974.096 867.032ZM3575.23 890.012C3555.01 897.46 3539.75 916.253 3533.85 940.962C3530.22 956.142 3529.93 959.398 3530.01 984.562C3530.12 1017.8 3531.88 1031.22 3538.48 1048.93L3541.78 1057.81L3548.28 1057.25C3563.49 1055.94 3596.59 1042.03 3616.3 1028.67C3634.36 1016.43 3650.52 999.484 3659.45 983.441C3665.83 971.958 3667.5 966.6 3668.05 955.819C3668.45 947.924 3668.2 945.791 3666.34 941.193C3658.14 920.998 3633.05 921.169 3612.19 941.562C3607.97 945.687 3604.05 949.958 3603.48 951.054C3601.27 955.275 3600.98 951.103 3602.84 941.787C3605.47 928.617 3605.53 909.881 3602.95 903.562C3597.8 890.922 3587.04 885.662 3575.23 890.012ZM876.785 901.721C857.732 908.123 853.225 924.16 866.526 938.223C875.762 947.989 890.188 953.461 906.87 953.526C921.446 953.584 931.339 949.612 937.374 941.281C939.768 937.975 940.283 936.268 940.276 931.662C940.253 918.421 926.885 905.99 907.454 901.142C898.503 898.908 884.361 899.175 876.785 901.721ZM113.231 1003.38C104.867 1008.69 101.285 1016.53 101.285 1029.55C101.285 1039.12 103.23 1046.53 108.563 1057.29C110.263 1060.72 111.396 1063.78 111.082 1064.1C110.768 1064.41 106.984 1062.37 102.673 1059.55C91.5148 1052.27 79.7508 1046.72 72.7848 1045.44C56.3398 1042.45 47.0958 1048.16 44.2828 1063.07C43.3008 1068.28 43.3648 1070.65 44.6538 1076.89C51.5358 1110.17 78.2478 1132.1 134.469 1150.62C151.054 1156.09 162.521 1158.51 175.299 1159.24C188.008 1159.97 187.535 1160.36 189.836 1147.28C191.593 1137.3 191.776 1106.87 190.153 1094.61C185.766 1061.48 173.98 1034.14 156.16 1015.77C145.582 1004.87 136.877 1000.56 125.398 1000.56C118.645 1000.56 117.119 1000.92 113.231 1003.38ZM1777.68 1006.41C1772.83 1008.68 1769.9 1011.6 1766.96 1017.06C1763.8 1022.96 1763.83 1041.22 1767.03 1050.74C1775.64 1076.44 1798.76 1093.48 1814.27 1085.57C1832.45 1076.29 1829.58 1038.43 1809.1 1017.53C1798.48 1006.68 1786.3 1002.37 1777.68 1006.41ZM1861.78 1026.24C1850.39 1029.42 1840.35 1048.77 1840.35 1067.56C1840.35 1089.86 1852.77 1108.67 1867.4 1108.54C1873.23 1108.49 1881.12 1102.91 1885.76 1095.56C1891.27 1086.85 1892.68 1080.93 1892.71 1066.56C1892.72 1056.26 1892.32 1051.92 1891 1048.26C1885.89 1034.04 1878.65 1026.72 1869.03 1026.05C1866.14 1025.84 1862.88 1025.93 1861.78 1026.24ZM1715.53 1050.35C1714.29 1050.74 1711.65 1052.36 1709.67 1053.94C1691.9 1068.14 1708.09 1104.88 1738.28 1118.87C1743.82 1121.44 1746.05 1121.9 1753.28 1121.97C1765.82 1122.1 1771.88 1118.08 1774.95 1107.58C1776.33 1102.87 1776.38 1101.18 1775.3 1095.58C1772.11 1079.03 1758.75 1062.26 1742.48 1054.36C1735.24 1050.85 1733.11 1050.29 1725.98 1049.98C1721.47 1049.79 1716.77 1049.95 1715.53 1050.35ZM1808.71 1112.62C1797.82 1116.81 1791.23 1125.8 1789.33 1139.06C1788.78 1142.91 1787.64 1153.94 1786.81 1163.56C1785.97 1173.19 1784.54 1185.78 1783.64 1191.54C1782.22 1200.59 1782.18 1203.12 1783.29 1210.04C1785.39 1223.03 1789.25 1230.27 1796.71 1235.24C1800.1 1237.5 1801.87 1237.95 1807.28 1237.94C1819.28 1237.91 1826.69 1231.73 1835.34 1214.56C1847.47 1190.45 1856.27 1184.29 1883.78 1180.59C1901.09 1178.27 1908.17 1174.97 1913.34 1166.82C1915.8 1162.93 1916.28 1161.13 1916.28 1155.83C1916.28 1147.97 1914.24 1143.66 1907.51 1137.37C1899.58 1129.95 1888.8 1125.48 1871.78 1122.55C1865.67 1121.5 1856.9 1119.39 1846.78 1116.54C1845.13 1116.07 1839.73 1114.55 1834.78 1113.16C1823.93 1110.1 1815.7 1109.93 1808.71 1112.62ZM2512.78 1124.3C2511.13 1124.5 2507.34 1125.35 2504.35 1126.19C2471.3 1135.52 2450.2 1167.99 2436.22 1231.06C2433.42 1243.69 2432.23 1271.47 2434.42 1273.22C2435.17 1273.82 2438.75 1274.82 2442.37 1275.44C2458.52 1278.19 2486.99 1275.58 2511.78 1269.06C2540.4 1261.54 2567.59 1244.26 2580.33 1225.5C2598.37 1198.93 2583.51 1173.76 2552.92 1179.07C2545.33 1180.39 2533.2 1185.35 2527.3 1189.55C2521.02 1194.02 2521.35 1192.76 2530.96 1175.56C2538.32 1162.39 2541.39 1144.85 2537.83 1136.33C2534.49 1128.34 2523.43 1123.03 2512.78 1124.3ZM1709.43 1134.02C1699.04 1137.88 1694.28 1143.69 1694.28 1152.52C1694.28 1164.21 1704.13 1175.83 1720.38 1183.31C1746.32 1195.26 1775.82 1186.05 1774.03 1166.56C1771.97 1143.97 1734.07 1124.88 1709.43 1134.02ZM3123.84 1168.61C3118.26 1171.39 3115.79 1174.01 3113.13 1179.91C3111.13 1184.35 3110.81 1186.65 3110.83 1196.56C3110.85 1206.03 3111.27 1209.21 3113.19 1214.56C3117.01 1225.23 3121.38 1232.52 3127.91 1239.15C3140.55 1251.98 3154.96 1254.07 3163.99 1244.4C3173.32 1234.39 3173.61 1211.01 3164.63 1193.25C3156.77 1177.72 3142.4 1166.44 3130.67 1166.6C3129.08 1166.62 3126.01 1167.53 3123.84 1168.61ZM3204.29 1193.75C3191.06 1200.57 3181.98 1224.17 3185.2 1243.36C3187 1254.05 3189.66 1260.57 3194.44 1266C3201.76 1274.31 3208.76 1276.34 3217.1 1272.56C3224.15 1269.36 3231.69 1260.15 3234.41 1251.4C3236.31 1245.3 3238.28 1234.12 3238.26 1229.56C3238.21 1220.75 3235.17 1210.08 3230.63 1202.85C3224.21 1192.63 3213.59 1188.95 3204.29 1193.75ZM3060.93 1208.59C3046.44 1212.93 3042.29 1230.24 3051.35 1248.57C3062.84 1271.83 3088.11 1287.2 3105.39 1281.43C3119.24 1276.8 3122.46 1257.83 3112.49 1239.56C3108.54 1232.32 3102.73 1225.06 3097.58 1220.92C3094.94 1218.8 3092.56 1216.78 3092.28 1216.44C3092.01 1216.1 3089.31 1214.57 3086.28 1213.04C3076.56 1208.12 3067.68 1206.56 3060.93 1208.59ZM583.285 1215.17C572.968 1217.05 558.13 1225.3 550.105 1233.61C536.713 1247.49 526.606 1267.35 519.603 1293.56C511.348 1324.46 508.559 1342.91 510.232 1355.56C510.777 1359.69 511.237 1363.81 511.254 1364.73C511.356 1370.23 547.125 1369.5 574.285 1363.44C595.154 1358.78 612.826 1351.45 628.229 1341.06C643.767 1330.58 653.828 1320.15 659.42 1308.73C662.352 1302.74 662.691 1301.14 662.735 1293.06C662.771 1286.6 662.31 1283.07 661.104 1280.56C653.006 1263.69 625.718 1263.05 603.035 1279.18C599.959 1281.37 598.285 1282.07 598.285 1281.18C598.285 1280.42 600.958 1274.23 604.226 1267.43C610.813 1253.71 613.285 1245.5 613.285 1237.32C613.285 1223.44 605.914 1215.57 592.393 1215C588.759 1214.84 584.66 1214.92 583.285 1215.17ZM1268.5 1232.02C1258.75 1237.4 1253.31 1249.59 1253.3 1266.06C1253.29 1280.55 1257.14 1292.83 1264.98 1303.34C1270.95 1311.34 1277.62 1315.6 1285.24 1316.29C1294.83 1317.16 1301.74 1312.2 1307.16 1300.56C1309.51 1295.53 1309.73 1293.92 1309.76 1281.56C1309.78 1269.86 1309.46 1267.07 1307.32 1260.58C1302.95 1247.31 1293.78 1235.99 1283.99 1231.77C1280.42 1230.23 1271.47 1230.38 1268.5 1232.02ZM1198.54 1260.22C1187.67 1264.07 1182.34 1277.72 1185.74 1293C1188.4 1304.97 1194.33 1315.73 1203.22 1324.72C1212.94 1334.56 1219.27 1337.91 1229.01 1338.41C1235.38 1338.73 1236.77 1338.47 1240.69 1336.17C1249.31 1331.12 1253 1318.39 1249.85 1304.56C1244.9 1282.77 1228.86 1264.32 1210.78 1259.61C1205.67 1258.28 1203.75 1258.38 1198.54 1260.22ZM1344.26 1271.41C1337.95 1274.56 1334.27 1277.89 1329.72 1284.56C1316.12 1304.46 1315.98 1334.44 1329.43 1345.95C1340.77 1355.66 1356.56 1349.45 1366.68 1331.29C1376.86 1313.03 1376.84 1287.64 1366.63 1275.95C1361.19 1269.71 1351.55 1267.76 1344.26 1271.41ZM3150.62 1275.41C3139.99 1279.08 3133.43 1286.75 3130.25 1299.2C3129.17 1303.43 3128.28 1308.5 3128.28 1310.47C3128.26 1316.18 3125.62 1334.02 3122.85 1347.06C3116.98 1374.69 3121.38 1391.89 3136.27 1399.6C3140.45 1401.76 3149.28 1401.1 3155 1398.21C3161.35 1394.99 3165.1 1390.61 3173.23 1376.92C3182.45 1361.4 3189.38 1354.57 3199.28 1351.25C3204.48 1349.51 3215.99 1347.56 3221.28 1347.53C3241.27 1347.4 3254.75 1338.49 3256.02 1324.6C3256.48 1319.49 3256.17 1317.84 3253.86 1313.13C3247.84 1300.83 3234.52 1293.5 3205.78 1286.66C3200.83 1285.48 3191.83 1282.68 3185.78 1280.43C3166.38 1273.22 3159.71 1272.27 3150.62 1275.41ZM3047.87 1292.58C3041.36 1295.11 3036.7 1299.8 3034.71 1305.79C3033.21 1310.31 3033.21 1311.05 3034.76 1315.86C3039.28 1329.93 3051.56 1340.32 3070.78 1346.33C3078.57 1348.76 3094.58 1348.43 3100.29 1345.71C3112.4 1339.96 3116.21 1330.14 3110.91 1318.34C3105.67 1306.66 3093.1 1297.15 3076.35 1292.17C3068.65 1289.89 3054.23 1290.09 3047.87 1292.58ZM3924.28 1314.56C3908.95 1317.35 3898.28 1334.93 3898.28 1357.44C3898.28 1362.28 3897.99 1366.53 3897.62 1366.89C3896.82 1367.69 3895.37 1365.68 3891.18 1357.96C3882.76 1342.45 3873.43 1331.67 3865.05 1327.77C3859.69 1325.27 3850.6 1324.79 3847.09 1326.81C3835.9 1333.26 3829.3 1348.08 3829.29 1366.8C3829.28 1386.64 3837.9 1406.99 3856.11 1430.06C3866.44 1443.15 3883.15 1460.83 3893.67 1469.8C3901.79 1476.73 3917.27 1485.9 3919.96 1485.39C3923.05 1484.79 3935.08 1467.38 3942.68 1452.5C3952.18 1433.88 3958.38 1415.75 3962.33 1394.94C3964.16 1385.3 3963.08 1357.88 3960.49 1348.36C3953.98 1324.44 3940.28 1311.65 3924.28 1314.56ZM1171.5 1340.45C1164.98 1342.71 1161.83 1345.57 1159.67 1351.22C1151.67 1372.18 1181.49 1401.56 1210.77 1401.56C1226.86 1401.56 1236.52 1391.06 1233.2 1377.19C1230.14 1364.41 1219.44 1352.3 1204.77 1344.99C1192.1 1338.67 1181.02 1337.16 1171.5 1340.45ZM1276.78 1341.28C1272.39 1342.36 1266.61 1345.58 1263.39 1348.73C1257.11 1354.9 1254.36 1360.72 1249.3 1378.56C1247.08 1386.39 1240.54 1404.33 1239.28 1406.06C1238.37 1407.31 1234.83 1418.51 1233.38 1424.75C1231.63 1432.26 1232.02 1442.79 1234.28 1448.77C1237.99 1458.63 1244.88 1463.56 1254.97 1463.56C1263.38 1463.56 1270.09 1459.76 1278.68 1450.13C1291.76 1435.48 1296.97 1430.81 1304.02 1427.44C1311.5 1423.86 1314.3 1423.66 1344.39 1424.47C1357.83 1424.84 1358.06 1424.81 1363.28 1421.95C1366.39 1420.25 1369.85 1417.27 1371.67 1414.71C1374.51 1410.75 1374.78 1409.69 1374.76 1402.71C1374.74 1393.82 1373.44 1390.79 1366.43 1383.28C1359.97 1376.36 1351.73 1371.02 1338.82 1365.37C1332.75 1362.71 1322.38 1357.44 1315.78 1353.67C1300.43 1344.88 1298.07 1343.7 1292.43 1341.99C1287.9 1340.62 1280.81 1340.3 1276.78 1341.28ZM2128.49 1450.15C2119.54 1454.6 2112.93 1463.97 2108.8 1478.06C2106.44 1486.11 2106.37 1503.92 2108.67 1511.64C2115.51 1534.61 2134.15 1541.72 2148.65 1526.89C2160.22 1515.05 2165.73 1493.73 2161.91 1475.49C2160.07 1466.68 2157.29 1460.68 2152.72 1455.62C2145.23 1447.33 2137.6 1445.61 2128.49 1450.15ZM2201.04 1471.51C2191.13 1476.46 2183.55 1483.93 2177.4 1494.8C2174.04 1500.74 2173.09 1503.26 2170.74 1512.56C2165.47 1533.46 2174.92 1551.56 2191.1 1551.56C2201.99 1551.56 2218.02 1538.49 2225.61 1523.41C2230.45 1513.8 2232.29 1506.32 2232.27 1496.26C2232.25 1484 2228.53 1475.76 2221.17 1471.61C2216.35 1468.91 2206.35 1468.86 2201.04 1471.51ZM2057.27 1496.4C2052.55 1498.88 2047.68 1506.34 2046.23 1513.32C2042.34 1532.04 2051.61 1557.18 2066.43 1568.09C2095.93 1589.81 2115.29 1548.69 2092.5 1512.73C2083.08 1497.87 2067.87 1490.82 2057.27 1496.4ZM155.485 1539.82C150.144 1541.53 143.645 1549.64 141.3 1557.51C135.941 1575.5 142.615 1600.04 156.705 1614.15C172.139 1629.6 189.277 1626.74 196.298 1607.53C199.501 1598.76 199.115 1583.13 195.423 1572.14C190.19 1556.57 180.436 1544.63 169.645 1540.59C163.717 1538.38 160.54 1538.2 155.485 1539.82ZM2237.28 1546.58C2231.17 1547.65 2224.49 1550.67 2217.03 1555.73C2204.39 1564.32 2196.75 1574.82 2194.21 1587.14C2193.14 1592.32 2193.2 1593.81 2194.68 1598.24C2196.81 1604.66 2198.83 1607 2204.39 1609.52C2216.67 1615.09 2237.02 1609.12 2250.83 1595.9C2260.66 1586.49 2265.53 1577.24 2266.1 1566.89C2266.43 1560.91 2266.13 1559.07 2264.34 1555.87C2259.66 1547.54 2250.26 1544.32 2237.28 1546.58ZM2139.78 1558.04C2139.23 1558.22 2136.33 1559.12 2133.32 1560.05C2128.68 1561.49 2114.86 1569.37 2113.28 1571.49C2112.22 1572.92 2096.48 1583.42 2090.78 1586.51C2074.15 1595.51 2063.68 1604.58 2058.33 1614.63C2054.46 1621.89 2054.02 1631.97 2057.34 1637.42C2059.76 1641.38 2064.43 1645.51 2068.71 1647.46C2073.21 1649.51 2087.98 1649.11 2099.21 1646.64C2114.14 1643.35 2124.62 1644.09 2134.43 1649.12C2138.3 1651.11 2140.82 1653.13 2151.64 1662.94C2161.87 1672.21 2166.48 1675.27 2173.06 1677.19C2182.93 1680.05 2192.59 1675.86 2197.8 1666.45C2200.56 1661.46 2200.78 1660.35 2200.66 1651.56C2200.56 1643.94 2200.01 1640.63 2197.86 1634.8C2195.39 1628.09 2193.95 1625.13 2185.6 1609.56C2183.98 1606.54 2181.15 1600.24 2179.32 1595.56C2171.71 1576.11 2166.08 1567.07 2158.74 1562.54C2153.4 1559.24 2143.42 1556.87 2139.78 1558.04ZM234.285 1571.86C226.012 1574.46 215.317 1589.19 211.784 1602.86C209.898 1610.15 209.863 1625.6 211.717 1631.71C214.51 1640.91 219.563 1648.04 225.485 1651.15C229.059 1653.02 237.123 1652.95 241.784 1651C250.812 1647.23 260.021 1632.86 262.798 1618.22C264.607 1608.69 264.629 1602.99 262.889 1594.89C259.035 1576.93 247.566 1567.7 234.285 1571.86ZM88.5598 1574.5C79.0468 1576.85 73.2848 1585.41 73.2848 1597.19C73.2848 1611.11 80.7828 1626.25 93.6368 1638.27C102.928 1646.97 111.473 1650.89 121.291 1650.98C127.726 1651.04 129.296 1650.69 132.291 1648.58C139.86 1643.22 142.832 1636.24 142.035 1625.68C141.051 1612.63 134.993 1600.46 123.785 1589.01C112.958 1577.96 98.5738 1572.03 88.5598 1574.5ZM844.49 1628.76C833.111 1632.58 819.795 1647.47 814.309 1662.5C813.395 1665.01 812.058 1670.51 811.338 1674.73C809.636 1684.71 811.145 1693.65 815.663 1700.35C819.982 1706.76 824.107 1708.95 831.747 1708.87C847.484 1708.73 864.346 1692.63 871.39 1671.03C874.63 1661.1 874.602 1646.1 871.331 1639.28C868.653 1633.7 863.737 1629.31 858.363 1627.7C853.275 1626.18 851.863 1626.29 844.49 1628.76ZM762.535 1647.72C751.377 1653.13 744.273 1668.71 744.297 1687.71C744.338 1720.49 766.524 1739.22 784.621 1721.76C792.442 1714.22 796.64 1702.1 796.64 1687.06C796.64 1672.03 792.442 1659.9 784.621 1652.36C777.525 1645.51 770.242 1643.98 762.535 1647.72ZM170.688 1649.61C163.549 1651.87 156.213 1657.82 153.143 1663.84C150.399 1669.22 148.878 1674.63 145.909 1689.56C144.542 1696.44 141.775 1707.24 139.759 1713.56C130.031 1744.09 132.831 1763.79 147.952 1771.19C152.456 1773.39 154.254 1773.74 158.695 1773.28C168.696 1772.25 175.656 1766.86 186.095 1752.06C198.173 1734.94 207.268 1728.96 223.648 1727.39C228.673 1726.9 234.211 1726.76 235.955 1727.06C240.285 1727.83 257.155 1725.68 260.522 1723.94C264.984 1721.63 270.176 1716.59 271.956 1712.84C274.366 1707.76 274.08 1699.12 271.309 1693.28C266.522 1683.21 253.042 1674.01 233.785 1667.69C228.835 1666.06 222.985 1663.97 220.785 1663.04C216.874 1661.39 214.545 1660.35 201.285 1654.31C193.643 1650.83 182.834 1647.54 179.288 1647.62C177.911 1647.65 174.041 1648.54 170.688 1649.61ZM70.2848 1656.19C63.4188 1657.53 57.3018 1662.27 54.6858 1668.28C50.2488 1678.47 57.1858 1693.06 71.6438 1703.95C84.5948 1713.71 103.881 1718.08 116.485 1714.11C143.656 1705.57 130.385 1670.49 95.2848 1658.08C90.7548 1656.48 74.9318 1655.28 70.2848 1656.19ZM2814.75 1669.62C2800.84 1676.38 2789.75 1694.89 2787.83 1714.56C2786.27 1730.59 2791.84 1745.11 2801.48 1750.15C2805.56 1752.28 2815.59 1751.96 2820.32 1749.54C2838.53 1740.25 2851.53 1709.04 2845.93 1688.06C2844.6 1683.1 2841.52 1676.56 2839.04 1673.44C2834.34 1667.52 2822.8 1665.71 2814.75 1669.62ZM906.785 1673.02C906.235 1673.18 903.76 1673.92 901.285 1674.65C888.268 1678.51 872.526 1692.43 865.857 1705.96C862.737 1712.29 861.874 1715.29 861.503 1721.07C860.783 1732.28 863.727 1738.71 871.376 1742.61C879.933 1746.97 888.918 1746.12 902.285 1739.68C911.839 1735.08 925.365 1722.01 929.664 1713.22C932.968 1706.47 935.256 1698.49 935.273 1693.68C935.305 1684.67 929.29 1675.75 921.785 1673.68C918.146 1672.67 909.246 1672.28 906.785 1673.02ZM3505.13 1692.6C3489.86 1696.33 3476.8 1714.79 3473.24 1737.67C3471.15 1751.12 3475.05 1765.82 3482.36 1771.97C3488.64 1777.26 3494.66 1778.63 3501.28 1776.3C3527.56 1767.03 3541.87 1719.79 3524.53 1699.54C3519.02 1693.1 3512.54 1690.78 3505.13 1692.6ZM2739.42 1699.28C2736.3 1699.87 2729.22 1707.06 2726.87 1712.02C2721.9 1722.51 2720.93 1736.56 2724.26 1749.77C2727.74 1763.6 2734.5 1773.49 2743.51 1777.99C2751.7 1782.07 2758.02 1781.3 2764.7 1775.42C2780.79 1761.26 2779.69 1726.58 2762.56 1707.52C2755.61 1699.8 2749.04 1697.46 2739.42 1699.28ZM1631.56 1703.48C1612.28 1710.05 1597.15 1731.47 1592.73 1758.45C1591.07 1768.58 1590.86 1790.74 1592.31 1802.65C1595.21 1826.49 1595.85 1830.4 1598.96 1843.56C1602.08 1856.76 1610.25 1874.56 1613.18 1874.56C1615.64 1874.56 1629.48 1869.89 1637.12 1866.49C1675.01 1849.59 1705.94 1822.1 1719.94 1792.88C1730.95 1769.93 1730.85 1750.87 1719.66 1740.46C1712.26 1733.58 1704.06 1732.03 1693.77 1735.57C1683.09 1739.24 1673.31 1747.27 1665.43 1758.81C1661.48 1764.61 1659.85 1764.95 1660.65 1759.81C1660.97 1757.75 1661.53 1750.56 1661.9 1743.85C1663.15 1721.05 1657.63 1707.42 1645.39 1703.1C1639.98 1701.19 1638.13 1701.24 1631.56 1703.48ZM2885.03 1703.59C2868.89 1707.65 2852.57 1724.35 2845.83 1743.72C2843.47 1750.48 2843.79 1763.54 2846.46 1769.2C2849.72 1776.14 2855.66 1779.56 2864.43 1779.56C2870.71 1779.56 2872.64 1779.13 2879.28 1776.22C2887.3 1772.71 2896.81 1764.15 2903.03 1754.85C2919.34 1730.48 2914.97 1704.28 2894.38 1702.99C2891.3 1702.8 2887.1 1703.07 2885.03 1703.59ZM3422.94 1725.56C3406.66 1733.69 3402.47 1763.99 3414.35 1787.65C3417.77 1794.47 3424.82 1801.92 3429.82 1804.01C3434.45 1805.95 3442.52 1806.01 3446.08 1804.15C3466.18 1793.65 3466.07 1749.28 3445.91 1730.85C3437.99 1723.61 3430.36 1721.86 3422.94 1725.56ZM3566.06 1729.55C3559.76 1731.95 3549.2 1739.59 3544.55 1745.12C3534.16 1757.48 3529.78 1768.43 3529.78 1782.06C3529.78 1792.38 3531.19 1795.75 3537.63 1800.96C3541.28 1803.9 3541.92 1804.06 3550.13 1804.03C3558.18 1804.01 3559.28 1803.74 3565.78 1800.27C3579.16 1793.15 3589.03 1781.72 3595.29 1766.13C3598.13 1759.04 3598.69 1745.31 3596.38 1739.56C3594.5 1734.92 3590.56 1730.72 3586.41 1728.98C3581.87 1727.07 3571.85 1727.35 3566.06 1729.55ZM804.785 1733.04C802.035 1733.73 795.06 1735.66 789.285 1737.33C783.51 1738.99 775.635 1740.89 771.785 1741.53C750.235 1745.16 747.634 1745.85 737.785 1750.59C724.246 1757.1 716.841 1768.78 719.468 1779.49C722.58 1792.18 731.756 1797.87 754.285 1801.09C767.944 1803.04 777.405 1806.79 784.023 1812.88C789.35 1817.78 791.05 1820.34 798.746 1835.06C801.909 1841.11 806.066 1847.99 807.982 1850.34C812.722 1856.16 819.658 1859.56 826.792 1859.56C838.276 1859.56 846.28 1852 850.228 1837.42C851.674 1832.08 851.198 1810.64 849.366 1798.56C848.74 1794.44 847.845 1783.41 847.377 1774.06C846.319 1752.94 844.934 1748.15 837.788 1740.97C829.275 1732.4 818.053 1729.71 804.785 1733.04ZM896.191 1757.07C882.337 1760.87 870.553 1769.14 864.619 1779.24C862.274 1783.23 861.785 1785.21 861.785 1790.72C861.785 1796.63 862.122 1797.79 864.785 1801.07C873.713 1812.07 890.384 1814.4 912.095 1807.69C922.421 1804.5 934.846 1794.45 939.452 1785.56C945.494 1773.91 939.014 1761.05 924.984 1756.85C919.702 1755.27 902.272 1755.4 896.191 1757.07ZM2796.28 1777.53C2792.42 1778.76 2784.53 1782.02 2776.28 1785.81C2767.7 1789.76 2757.13 1793.76 2749.61 1795.92C2732.16 1800.93 2717.59 1811.79 2712.7 1823.43C2709.22 1831.71 2712.41 1842.37 2720.13 1848.27C2726.27 1852.96 2729.85 1853.72 2749.78 1854.57C2759.68 1854.99 2769.14 1855.77 2770.79 1856.31C2781.32 1859.72 2790.67 1867.69 2799.23 1880.56C2805.57 1890.1 2814.8 1898.82 2820.28 1900.45C2830.05 1903.36 2839.16 1900.53 2844.99 1892.79C2852.97 1882.18 2853.21 1867.72 2845.81 1843.06C2842.1 1830.67 2840.92 1825.91 2839.27 1816.56C2836.22 1799.28 2833.53 1792.06 2827.83 1785.74C2822.05 1779.34 2815.43 1776.54 2806.34 1776.65C2802.18 1776.69 2797.66 1777.09 2796.28 1777.53ZM2895.28 1785.47C2884.36 1787.98 2874.52 1793.52 2865.8 1802.06C2857.97 1809.73 2854.99 1815.89 2854.87 1824.64C2854.8 1830.33 2855.15 1831.7 2857.51 1834.79C2863.84 1843.1 2875.99 1846.28 2889.86 1843.27C2906.4 1839.68 2921.95 1828.94 2928.78 1816.38C2932.79 1809.02 2932.96 1799.7 2929.18 1794C2925.02 1787.72 2919.55 1785.36 2908.28 1784.99C2903.06 1784.81 2897.21 1785.03 2895.28 1785.47ZM3482.78 1802.53C3478.93 1803.55 3470.47 1806.9 3463.97 1809.97C3457.48 1813.05 3446.68 1817.39 3439.97 1819.62C3424.93 1824.62 3418.44 1827.7 3411.05 1833.3C3402.14 1840.06 3397.28 1848.24 3397.28 1856.49C3397.28 1862.5 3399.17 1867.09 3403.4 1871.39C3409.89 1877.99 3412.62 1878.72 3434.47 1879.69C3456.05 1880.65 3461.2 1881.82 3469.1 1887.54C3473.41 1890.67 3481.12 1899.49 3486.35 1907.28C3490.95 1914.12 3498.14 1921.38 3502.78 1923.86C3508.34 1926.83 3519.34 1926.91 3524.27 1924.01C3528.6 1921.47 3533.84 1914.72 3535.32 1909.79C3538.73 1898.37 3537.45 1884.96 3531.24 1867.06C3529.31 1861.52 3526.99 1852.21 3525.25 1843.06C3522.04 1826.19 3521.63 1824.65 3518.55 1817.67C3516.64 1813.33 3509.54 1806.23 3505.17 1804.27C3501.6 1802.68 3493.3 1800.52 3491.09 1800.62C3490.37 1800.65 3486.63 1801.51 3482.78 1802.53ZM3583.54 1809.71C3572.4 1811.48 3560.46 1817.65 3551.96 1826.02C3543.9 1833.95 3540.88 1840.22 3540.83 1849.14C3540.79 1855.38 3541.11 1856.64 3543.59 1859.9C3549 1866.99 3560.63 1870.55 3572.12 1868.62C3599.34 1864.05 3621.03 1842.58 3617.09 1824.1C3615.86 1818.31 3610.33 1812.49 3604.36 1810.7C3599.02 1809.1 3590.04 1808.67 3583.54 1809.71ZM2228.5 1939.82C2220.8 1942.28 2212.5 1953.13 2209.18 1965.06C2208.31 1968.18 2207.81 1974.76 2207.84 1982.56C2207.9 1992.94 2208.29 1996.16 2210.2 2001.56C2213.42 2010.67 2216.54 2015.73 2221.76 2020.33C2236 2032.86 2252.95 2024.83 2260.4 2002.01C2263.23 1993.33 2263.58 1974.2 2261.06 1965.99C2257.27 1953.68 2250.65 1944.59 2242.78 1940.92C2237.44 1938.42 2233.75 1938.14 2228.5 1939.82ZM2305.58 1951.53C2297.08 1953.55 2286.11 1963.86 2280.54 1975.06C2274.77 1986.69 2273.78 1991 2273.81 2004.56C2273.84 2015.66 2274.1 2017.56 2276.17 2021.56C2279.19 2027.39 2283.92 2032.35 2288.16 2034.14C2307.46 2042.28 2333.11 2012.66 2333.24 1982.06C2333.34 1960.68 2321.59 1947.72 2305.58 1951.53ZM2162.94 1994.97C2154.2 1998.2 2150.07 2006.11 2150.15 2019.46C2150.24 2034.05 2156.28 2048.46 2166.78 2059.12C2179.99 2072.54 2195.02 2075.13 2203.73 2065.49C2215.18 2052.81 2210.66 2025.18 2194.19 2007.2C2184.44 1996.56 2171.91 1991.66 2162.94 1994.97ZM1246.01 2006.96C1240.73 2009.55 1237.26 2013.04 1233.99 2019.06C1232.12 2022.5 1231.82 2024.67 1231.8 2034.56C1231.78 2046.64 1232.83 2051.33 1237.93 2062C1241.97 2070.46 1241.1 2070.48 1230.06 2062.18C1215.47 2051.23 1200.78 2045.65 1189.89 2046.93C1166.88 2049.62 1166.46 2087.03 1189.15 2113.27C1198.33 2123.89 1211.04 2133.19 1228.28 2141.91C1243.36 2149.54 1265.07 2158.49 1276.28 2161.71C1290.18 2165.69 1310.3 2167.96 1311.7 2165.69C1314.46 2161.23 1318.25 2134.26 1318.25 2119.06C1318.25 2103.19 1315.05 2080.41 1310.95 2067.06C1303.17 2041.69 1290.92 2022.29 1276.39 2012.29C1265.14 2004.55 1254.68 2002.72 1246.01 2006.96ZM2346.03 2024C2327.01 2029.44 2310.24 2047.46 2306.34 2066.66C2304.32 2076.63 2308.08 2086.26 2315.59 2090.27C2317.85 2091.49 2321.12 2091.98 2326.82 2091.97C2334.13 2091.95 2335.58 2091.59 2342.82 2088.03C2354.17 2082.44 2365.58 2071.05 2370.85 2060.06C2374.36 2052.74 2374.69 2051.33 2374.73 2043.4C2374.78 2035.21 2374.62 2034.54 2371.72 2030.9C2366.02 2023.76 2356.14 2021.1 2346.03 2024ZM75.9378 2041.68C59.0168 2047.4 43.7058 2064.48 37.1668 2084.92C31.5358 2102.53 29.5088 2125.21 31.1818 2151.9C32.3828 2171.05 33.3398 2179.09 35.4248 2187.56C38.0218 2198.11 41.9148 2208.21 43.6428 2208.87C46.5538 2209.99 65.2288 2205.29 77.2848 2200.41C117.373 2184.19 144.076 2163.32 160.307 2135.52C170.434 2118.18 172.632 2102.92 166.736 2090.87C160.226 2077.57 145.012 2074.11 128.264 2082.14C122.66 2084.82 119.046 2087.62 112.081 2094.66C107.148 2099.64 102.939 2103.55 102.728 2103.34C102.517 2103.13 102.787 2100.5 103.329 2097.51C106.881 2077.87 107.474 2071.07 106.284 2063.67C104.147 2050.39 99.2168 2043.15 90.6688 2040.73C85.2078 2039.18 82.8898 2039.33 75.9378 2041.68ZM2241.78 2051.04C2237.93 2052.93 2233.21 2055.94 2231.28 2057.73C2229.36 2059.51 2224.11 2064.42 2219.62 2068.62C2215.13 2072.83 2207.03 2079.57 2201.62 2083.61C2179.32 2100.25 2170.06 2114.89 2172.76 2129.26C2174.15 2136.71 2180.87 2143.29 2189.41 2145.6C2195.49 2147.23 2202.09 2146.24 2217 2141.43C2232.31 2136.5 2241.9 2135.51 2250.37 2137.98C2256.38 2139.73 2260.88 2142.32 2276.14 2152.8C2281.54 2156.5 2287.89 2160.22 2290.25 2161.05C2301.59 2165.05 2313.54 2160.57 2318.97 2150.27C2321.03 2146.36 2321.27 2131.52 2319.35 2126.41C2316.76 2119.51 2312.18 2110.86 2307.78 2104.56C2299.88 2093.26 2294.69 2085.24 2291.58 2079.56C2281.03 2060.27 2275.73 2053.98 2266.7 2049.98C2258.4 2046.31 2250.73 2046.64 2241.78 2051.04ZM623.422 2124.93C616.245 2127.53 611.521 2133.22 607.138 2144.56C605.135 2149.75 605.435 2171.51 607.607 2178.51C616.067 2205.8 636.645 2218.17 651.406 2204.83C658.562 2198.37 662.303 2187.78 662.249 2174.15C662.189 2158.66 658.506 2147.08 650.296 2136.56C645.219 2130.06 642.448 2127.86 636.497 2125.58C630.53 2123.3 628.239 2123.19 623.422 2124.93ZM552.521 2151.53C546.894 2152.88 541.756 2157.04 539.28 2162.23C536.055 2168.99 536.01 2182.18 539.178 2192.06C544.024 2207.18 555.85 2221.76 568.19 2227.83C580.313 2233.8 592.062 2231.74 597.654 2222.69C604.09 2212.27 603.666 2198.52 596.433 2183.06C586.452 2161.73 567.294 2147.98 552.521 2151.53ZM697.785 2165.79C682.571 2171.21 670.285 2192.76 670.285 2214.01C670.285 2224.36 671.963 2230.66 676.493 2237.32C685.946 2251.21 704.415 2247.06 716.42 2228.35C718.136 2225.68 720.827 2219.79 722.399 2215.28C724.805 2208.36 725.26 2205.47 725.272 2196.99C725.28 2191.02 724.689 2184.92 723.818 2181.99C719.941 2168.93 708.662 2161.91 697.785 2165.79ZM3906.28 2215.95C3883.91 2223.77 3869.1 2239.42 3856.48 2268.56C3850.53 2282.3 3843.02 2308.47 3839.8 2326.7C3837.93 2337.29 3837.75 2361.87 3839.54 2363.36C3840.23 2363.93 3845.29 2364.9 3850.79 2365.52C3864.68 2367.08 3885.56 2365.3 3908.28 2360.62C3913.7 2359.5 3930.41 2354.12 3935.28 2351.93C3961.47 2340.12 3979.17 2325.85 3987.62 2309.73C3995.32 2295.04 3994.59 2283.4 3985.39 2274.5C3982.16 2271.38 3979.11 2269.49 3975.74 2268.55C3962.97 2264.98 3945.89 2268.92 3931.53 2278.75C3929.2 2280.35 3927.28 2281.21 3927.28 2280.65C3927.28 2280.1 3929.89 2274.57 3933.07 2268.35C3940.35 2254.16 3942.38 2248.03 3943.02 2238.44C3943.6 2229.79 3942.41 2225.06 3938.51 2220.42C3932.58 2213.37 3919.03 2211.49 3906.28 2215.95ZM525.285 2230.54C519.268 2231.38 514.974 2233.79 511.587 2238.24C509.038 2241.58 508.79 2242.64 508.837 2249.99C508.879 2256.41 509.365 2258.98 511.212 2262.56C515.88 2271.61 525.306 2280.83 536.506 2287.31C545.653 2292.6 561.5 2295.06 569.386 2292.42C577.475 2289.72 583.215 2282.3 583.263 2274.49C583.316 2265.89 576.942 2254.11 567.637 2245.6C555.198 2234.23 539.299 2228.58 525.285 2230.54ZM620.617 2237.14C610.095 2242.23 606.428 2247.88 598.806 2270.78C595.758 2279.93 591.33 2291.62 588.966 2296.74C586.602 2301.87 584.079 2308.09 583.36 2310.56C582.64 2313.04 581.654 2316.37 581.168 2317.96C579.904 2322.11 580.078 2336.65 581.44 2340.66C583.095 2345.53 587.125 2350.88 591.234 2353.65C594.204 2355.65 596.011 2356.04 602.285 2356.03C612.725 2356.01 616.162 2353.93 631.785 2338.15C650.812 2318.94 656.89 2316.64 681.576 2319.29C698.068 2321.06 707.186 2320.4 712.958 2317.01C723.602 2310.78 726.979 2298.82 721.371 2287.24C716.306 2276.78 706.542 2268.85 687.88 2260.04C681.778 2257.16 670.759 2251.16 663.394 2246.7C656.029 2242.25 647.575 2237.69 644.607 2236.58C636.837 2233.67 627.315 2233.89 620.617 2237.14ZM2904.22 2262.83C2882.53 2277.44 2892.6 2327.88 2919.93 2341.53C2937.81 2350.46 2952.28 2338.32 2952.28 2314.42C2952.28 2296.93 2946 2281.45 2934.16 2269.77C2925.15 2260.89 2911.72 2257.77 2904.22 2262.83ZM2987.91 2289.03C2978.43 2292.41 2969.47 2305.86 2966.35 2321.36C2962.14 2342.31 2970.7 2365.37 2984.18 2369.41C2989.51 2371.01 2992.1 2370.83 2997.22 2368.5C3007.25 2363.96 3015.28 2350.74 3018.1 2334.15C3019.58 2325.47 3019.58 2324.03 3018.09 2316.33C3016.09 2305.97 3013.1 2299.44 3007.83 2293.98C3002.04 2287.96 2995.49 2286.33 2987.91 2289.03ZM2837.18 2301.7C2828.74 2306.59 2825.41 2318.28 2828.78 2331.2C2836.05 2359.13 2868.44 2382.23 2886.98 2372.73C2910.56 2360.64 2894.14 2315.05 2861.4 2301.75C2854.01 2298.75 2842.31 2298.72 2837.18 2301.7ZM3400.76 2340.36C3389.22 2344.36 3378.42 2357.69 3373.45 2374.1C3367.85 2392.57 3369 2412.33 3377.34 2441.06C3379.82 2449.6 3388.69 2472.51 3393.03 2481.56C3398.01 2491.96 3404.88 2502.65 3410.91 2509.39C3414.58 2513.49 3414.94 2513.66 3417.78 2512.58C3430.27 2507.84 3456.93 2485.53 3472.76 2466.56C3489.43 2446.58 3500.4 2423.26 3503.84 2400.45C3505.08 2392.17 3505.09 2389.73 3503.9 2382.89C3500.74 2364.78 3490.87 2354.9 3476.78 2355.77C3461.77 2356.7 3447.52 2370.74 3439.92 2392.08L3438.51 2396.06L3437.39 2393.25C3436.78 2391.7 3436.28 2389 3436.27 2387.25C3436.24 2382.54 3433.65 2368.7 3431.73 2363.02C3427.85 2351.55 3421.73 2343.54 3414.46 2340.42C3409.15 2338.15 3407.19 2338.14 3400.76 2340.36ZM1766.78 2345.74C1757.95 2349.04 1750.1 2358.01 1746.07 2369.38C1744.97 2372.51 1743.6 2380.11 1743.03 2386.28C1742.46 2392.45 1741.6 2397.25 1741.11 2396.95C1740.62 2396.65 1738.16 2392.28 1735.63 2387.24C1729.79 2375.6 1726.48 2370.8 1719.31 2363.59C1715.25 2359.5 1711.91 2357.19 1707.89 2355.69C1701.37 2353.25 1699.87 2353.13 1695.18 2354.7C1677.08 2360.76 1668.73 2391.65 1677.66 2419.56C1684.23 2440.12 1699.3 2462.33 1725.74 2490.42C1737.77 2503.19 1758.47 2517.6 1762.04 2515.69C1767.28 2512.89 1782.18 2490.98 1789.67 2475.06C1799.74 2453.67 1804.27 2439.17 1806.82 2420.13C1808.67 2406.34 1808.66 2400.06 1806.79 2387.61C1804.46 2372.07 1800.69 2362.68 1793.52 2354.55C1786.56 2346.67 1774.72 2342.76 1766.78 2345.74ZM2925.77 2370.96C2914.42 2376.12 2909.03 2386 2905.81 2407.56C2903.62 2422.2 2902.29 2429.25 2900.63 2435.06C2890.8 2469.45 2898.65 2494.46 2919.28 2494.53C2930.66 2494.58 2936.49 2490.15 2948.37 2472.43C2957.76 2458.42 2963.21 2452.7 2970.38 2449.3C2977.74 2445.81 2983.46 2444.68 2999.28 2443.6C3006.71 2443.09 3014.32 2442.21 3016.2 2441.64C3026.97 2438.38 3035.12 2427.71 3034.06 2418.26C3032.36 2403.2 3016.67 2390.98 2990.78 2384.57C2983.92 2382.87 2975.61 2380.03 2963.78 2375.32C2949.16 2369.51 2945.55 2368.58 2937.78 2368.63C2932.71 2368.66 2929.41 2369.3 2925.77 2370.96ZM2825.99 2383.09C2812.84 2387.92 2808.6 2399.86 2815.46 2412.75C2823.76 2428.32 2843.87 2439.56 2863.41 2439.56C2876.67 2439.56 2885.13 2435.72 2889.16 2427.88C2889.78 2426.68 2890.28 2422.83 2890.28 2419.32C2890.28 2413.85 2889.8 2412.15 2886.9 2407.32C2879.99 2395.84 2867.47 2386.82 2853.15 2383.01C2846.37 2381.21 2831 2381.26 2825.99 2383.09ZM2326.78 2415.73C2314.93 2421.9 2305.91 2438.88 2303.72 2459.17C2302.67 2468.86 2305.46 2485.82 2310.44 2500.06C2314.86 2512.71 2327.3 2536.8 2338.07 2553.56C2345.7 2565.45 2354.11 2575.09 2363.36 2582.56L2366.93 2585.45L2370.29 2583.42C2372.13 2582.29 2375.47 2579.62 2377.71 2577.48C2379.95 2575.34 2382.06 2573.58 2382.4 2573.57C2383.39 2573.55 2400.69 2553.67 2405.89 2546.56C2420.48 2526.64 2430.47 2505.42 2434.95 2484.82C2437.13 2474.8 2437.38 2451.17 2435.38 2444.06C2430.94 2428.28 2421.22 2419.21 2408.78 2419.23C2396.83 2419.26 2386.26 2427.39 2379.42 2441.85C2375.9 2449.27 2374.69 2452.97 2372.79 2461.96C2371.87 2466.3 2370.78 2464.33 2366.76 2451.06C2362.56 2437.16 2358.63 2429.28 2352.56 2422.53C2344.79 2413.88 2335.2 2411.35 2326.78 2415.73ZM1021.96 2439.11C1009.73 2442.37 998.266 2456.44 992.661 2475.06C989.84 2484.44 990.141 2510.97 993.205 2523.06C1001.74 2556.75 1017.62 2592.01 1030.74 2606.4C1032.41 2608.24 1034.14 2610.38 1034.58 2611.15C1035.69 2613.09 1036.81 2612.94 1042.68 2610.06C1056.04 2603.53 1083.97 2578.29 1096.54 2561.42C1113.65 2538.45 1122.88 2515.71 1124.02 2493.71C1125 2474.72 1119.9 2462.09 1108.91 2456.3C1103.98 2453.71 1093.7 2453.3 1088.28 2455.48C1078.09 2459.57 1067.42 2472.03 1061.76 2486.45C1060.23 2490.36 1058.64 2493.56 1058.24 2493.56C1057.28 2493.56 1056.32 2489.8 1056.3 2485.99C1056.28 2481.52 1052.79 2465.96 1050.35 2459.46C1047.38 2451.54 1041.44 2443.45 1036.75 2440.94C1031.35 2438.04 1027.66 2437.59 1021.96 2439.11ZM201.991 2465.03C181.675 2469.48 163.264 2486.96 151.934 2512.56C144.507 2529.35 136.335 2564.24 134.701 2586.15C133.863 2597.37 135.033 2615.84 136.728 2618.15C139.579 2622.05 163.89 2620.97 187.773 2615.89C217.462 2609.56 239.879 2599.41 258.549 2583.84C278.894 2566.87 288.53 2547.32 284.311 2531.56C282.767 2525.8 274.599 2517.56 268.669 2515.79C256.346 2512.11 239.758 2516.47 225.585 2527.1C218.444 2532.46 217.871 2531.32 222.789 2521.55C232.02 2503.22 234.894 2485.09 230.164 2475.03C227.56 2469.49 224.524 2467.01 217.966 2465.06C212.094 2463.32 209.862 2463.31 201.991 2465.03Z" fill="#A9DEF9" fill-opacity="0.3"/>
</svg>
